<?xml version="1.0" encoding="iso-8859-1"?>
<!-- Generator: Adobe Illustrator 19.0.0, SVG Export Plug-In . SVG Version: 6.00 Build 0)  -->
<svg version="1.1" id="Capa_1" xmlns="http://www.w3.org/2000/svg" xmlns:xlink="http://www.w3.org/1999/xlink" x="0px" y="0px"
	 viewBox="0 0 496 496" style="enable-background:new 0 0 496 496;" xml:space="preserve">
<path style="fill:#003580;" d="M448,77.2H48C21.6,77.2,0,98.8,0,126v243.2C0,396.4,21.6,418,48,418h400c26.4,0,48-21.6,48-48.8V126
	C496,98.8,474.4,77.2,448,77.2z"/>
<path style="fill:#062E5E;" d="M48,77.2h400c26.4,0,48,21.6,48,48.8v243.2c0,27.2-21.6,48.8-48,48.8"/>
<path style="fill:#009543;" d="M20,409.2c8,5.6,17.6,9.6,28,9.6h400c26.4,0,48-21.6,48-48.8V126c0-4-0.8-8-1.6-12L20,409.2z"/>
<path style="fill:#057736;" d="M496,119.6C495.2,119.6,495.2,119.6,496,119.6c0-2.4-0.8-4-0.8-6.4l0,0L260.8,258.8L448,418
	c26.4,0,48-21.6,48-48.8V126C496,123.6,496,122,496,119.6z"/>
<path style="fill:#055E29;" d="M496,369.2c0,27.2-21.6,48.8-48,48.8H48c-26.4,0-48-21.6-48-48.8"/>
<path style="fill:#022344;" d="M48,77.2h400c26.4,0,48,21.6,48,48.8v88.8"/>
<path style="fill:#055E29;" d="M496,119.6C496,119.6,495.2,119.6,496,119.6C495.2,119.6,495.2,119.6,496,119.6c0-2.4-0.8-4-0.8-5.6
	l0,0l-108,67.2L496,214v-88C496,123.6,496,122,496,119.6z"/>
<path style="fill:#FFFFFF;" d="M448,77.2h-12L0,338.8v30.4C0,396.4,21.6,418,48,418h12l436-261.6V126C496,98.8,474.4,77.2,448,77.2z
	"/>
<path style="fill:#CE1021;" d="M0,369.2c0,21.6,13.6,39.2,32,46.4l464-278.4V126c0-21.6-13.6-39.2-32-46.4L0,358V369.2z"/>
<path style="fill:#7F091D;" d="M0.8,378c0,2.4,0.8,4.8,1.6,6.4v0.8c0.8,2.4,1.6,4,2.4,5.6v0.8c0.8,2.4,2.4,4,3.2,5.6
	c0,0,0,0.8,0.8,0.8c2.4,4,6.4,7.2,9.6,10.4l0,0c4,3.2,8,5.6,12.8,7.2l0,0l76.8-46.4H0c0,2.4,0,4.8,0.8,7.2
	C0.8,377.2,0.8,377.2,0.8,378z"/>
<path style="fill:#9E081A;" d="M495.2,118.8c0-0.8,0-0.8,0-1.6c0-2.4-0.8-4.8-1.6-6.4V110c-0.8-2.4-1.6-4-2.4-5.6v-0.8
	c-0.8-2.4-2.4-4-3.2-5.6c0,0,0,0-0.8-0.8c-2.4-4-6.4-7.2-9.6-10.4l0,0c-4-3.2-8-5.6-12.8-7.2l0,0L221.6,225.2l52.8,44.8L496,137.2
	V126C496,123.6,496,121.2,495.2,118.8z"/>
<path style="fill:#7F091D;" d="M495.2,118.8c0-0.8,0-0.8,0-1.6c0-2.4-0.8-4.8-1.6-6.4l0,0c0,0,0,0,0-0.8c-0.8-2.4-1.6-4-2.4-5.6l0,0
	c0,0,0,0,0-0.8c-0.8-2.4-2.4-4-3.2-5.6c0,0,0,0-0.8-0.8c-2.4-4-6.4-7.2-9.6-10.4l0,0l0,0c-4-3.2-8-4.8-12.8-7.2l0,0L326.4,162
	l84.8,25.6l84.8-50.4V126C496,123.6,496,121.2,495.2,118.8z"/>
<g>
	<path style="fill:#FFCE00;" d="M97.6,150c-16,0-28.8,12.8-28.8,28.8s12.8,28.8,28.8,28.8s28.8-12.8,28.8-28.8
		C126.4,162.8,112.8,150,97.6,150z"/>
	<path style="fill:#FFCE00;" d="M129.6,187.6l23.2-8.8l-23.2-8.8l16-19.2l-24.8,4l4-24.8l-19.2,16l-8.8-23.2L88,146l-19.2-16l4,24.8
		l-24.8-4L64,170l-23.2,8.8l23.2,8.8l-16,19.2l24.8-4l-4,24.8l19.2-16l8.8,23.2l8.8-23.2l19.2,16l-4-24.8l24.8,4L129.6,187.6z
		 M97.6,210.8c-17.6,0-32-14.4-32-32s14.4-32,32-32s32,14.4,32,32S115.2,210.8,97.6,210.8z"/>
</g>
<g>
</g>
<g>
</g>
<g>
</g>
<g>
</g>
<g>
</g>
<g>
</g>
<g>
</g>
<g>
</g>
<g>
</g>
<g>
</g>
<g>
</g>
<g>
</g>
<g>
</g>
<g>
</g>
<g>
</g>
</svg>
